<svg xmlns="http://www.w3.org/2000/svg" width="1192" height="216" viewBox="0 0 1192 216" role="img" aria-label="SKILLMAXXING">
  <rect width="1192" height="216" rx="14" fill="#10131c"/>
  <rect x="44" y="28" width="16" height="16" fill="#ff4d4d" stroke="#0c0f17" stroke-width="1"/>
  <rect x="60" y="28" width="16" height="16" fill="#ff4d4d" stroke="#0c0f17" stroke-width="1"/>
  <rect x="76" y="28" width="16" height="16" fill="#ff4d4d" stroke="#0c0f17" stroke-width="1"/>
  <rect x="92" y="28" width="16" height="16" fill="#ff4d4d" stroke="#0c0f17" stroke-width="1"/>
  <rect x="28" y="44" width="16" height="16" fill="#ff9f1c" stroke="#0c0f17" stroke-width="1"/>
  <rect x="28" y="60" width="16" height="16" fill="#ffd23f" stroke="#0c0f17" stroke-width="1"/>
  <rect x="44" y="76" width="16" height="16" fill="#2ec27e" stroke="#0c0f17" stroke-width="1"/>
  <rect x="60" y="76" width="16" height="16" fill="#2ec27e" stroke="#0c0f17" stroke-width="1"/>
  <rect x="76" y="76" width="16" height="16" fill="#2ec27e" stroke="#0c0f17" stroke-width="1"/>
  <rect x="92" y="92" width="16" height="16" fill="#22b8cf" stroke="#0c0f17" stroke-width="1"/>
  <rect x="92" y="108" width="16" height="16" fill="#4d79ff" stroke="#0c0f17" stroke-width="1"/>
  <rect x="28" y="124" width="16" height="16" fill="#9b5de5" stroke="#0c0f17" stroke-width="1"/>
  <rect x="44" y="124" width="16" height="16" fill="#9b5de5" stroke="#0c0f17" stroke-width="1"/>
  <rect x="60" y="124" width="16" height="16" fill="#9b5de5" stroke="#0c0f17" stroke-width="1"/>
  <rect x="76" y="124" width="16" height="16" fill="#9b5de5" stroke="#0c0f17" stroke-width="1"/>
  <rect x="124" y="28" width="16" height="16" fill="#ff4d4d" stroke="#0c0f17" stroke-width="1"/>
  <rect x="188" y="28" width="16" height="16" fill="#ff4d4d" stroke="#0c0f17" stroke-width="1"/>
  <rect x="124" y="44" width="16" height="16" fill="#ff9f1c" stroke="#0c0f17" stroke-width="1"/>
  <rect x="172" y="44" width="16" height="16" fill="#ff9f1c" stroke="#0c0f17" stroke-width="1"/>
  <rect x="124" y="60" width="16" height="16" fill="#ffd23f" stroke="#0c0f17" stroke-width="1"/>
  <rect x="156" y="60" width="16" height="16" fill="#ffd23f" stroke="#0c0f17" stroke-width="1"/>
  <rect x="124" y="76" width="16" height="16" fill="#2ec27e" stroke="#0c0f17" stroke-width="1"/>
  <rect x="140" y="76" width="16" height="16" fill="#2ec27e" stroke="#0c0f17" stroke-width="1"/>
  <rect x="124" y="92" width="16" height="16" fill="#22b8cf" stroke="#0c0f17" stroke-width="1"/>
  <rect x="156" y="92" width="16" height="16" fill="#22b8cf" stroke="#0c0f17" stroke-width="1"/>
  <rect x="124" y="108" width="16" height="16" fill="#4d79ff" stroke="#0c0f17" stroke-width="1"/>
  <rect x="172" y="108" width="16" height="16" fill="#4d79ff" stroke="#0c0f17" stroke-width="1"/>
  <rect x="124" y="124" width="16" height="16" fill="#9b5de5" stroke="#0c0f17" stroke-width="1"/>
  <rect x="188" y="124" width="16" height="16" fill="#9b5de5" stroke="#0c0f17" stroke-width="1"/>
  <rect x="220" y="28" width="16" height="16" fill="#ff4d4d" stroke="#0c0f17" stroke-width="1"/>
  <rect x="236" y="28" width="16" height="16" fill="#ff4d4d" stroke="#0c0f17" stroke-width="1"/>
  <rect x="252" y="28" width="16" height="16" fill="#ff4d4d" stroke="#0c0f17" stroke-width="1"/>
  <rect x="268" y="28" width="16" height="16" fill="#ff4d4d" stroke="#0c0f17" stroke-width="1"/>
  <rect x="284" y="28" width="16" height="16" fill="#ff4d4d" stroke="#0c0f17" stroke-width="1"/>
  <rect x="252" y="44" width="16" height="16" fill="#ff9f1c" stroke="#0c0f17" stroke-width="1"/>
  <rect x="252" y="60" width="16" height="16" fill="#ffd23f" stroke="#0c0f17" stroke-width="1"/>
  <rect x="252" y="76" width="16" height="16" fill="#2ec27e" stroke="#0c0f17" stroke-width="1"/>
  <rect x="252" y="92" width="16" height="16" fill="#22b8cf" stroke="#0c0f17" stroke-width="1"/>
  <rect x="252" y="108" width="16" height="16" fill="#4d79ff" stroke="#0c0f17" stroke-width="1"/>
  <rect x="220" y="124" width="16" height="16" fill="#9b5de5" stroke="#0c0f17" stroke-width="1"/>
  <rect x="236" y="124" width="16" height="16" fill="#9b5de5" stroke="#0c0f17" stroke-width="1"/>
  <rect x="252" y="124" width="16" height="16" fill="#9b5de5" stroke="#0c0f17" stroke-width="1"/>
  <rect x="268" y="124" width="16" height="16" fill="#9b5de5" stroke="#0c0f17" stroke-width="1"/>
  <rect x="284" y="124" width="16" height="16" fill="#9b5de5" stroke="#0c0f17" stroke-width="1"/>
  <rect x="316" y="28" width="16" height="16" fill="#ff4d4d" stroke="#0c0f17" stroke-width="1"/>
  <rect x="316" y="44" width="16" height="16" fill="#ff9f1c" stroke="#0c0f17" stroke-width="1"/>
  <rect x="316" y="60" width="16" height="16" fill="#ffd23f" stroke="#0c0f17" stroke-width="1"/>
  <rect x="316" y="76" width="16" height="16" fill="#2ec27e" stroke="#0c0f17" stroke-width="1"/>
  <rect x="316" y="92" width="16" height="16" fill="#22b8cf" stroke="#0c0f17" stroke-width="1"/>
  <rect x="316" y="108" width="16" height="16" fill="#4d79ff" stroke="#0c0f17" stroke-width="1"/>
  <rect x="316" y="124" width="16" height="16" fill="#9b5de5" stroke="#0c0f17" stroke-width="1"/>
  <rect x="332" y="124" width="16" height="16" fill="#9b5de5" stroke="#0c0f17" stroke-width="1"/>
  <rect x="348" y="124" width="16" height="16" fill="#9b5de5" stroke="#0c0f17" stroke-width="1"/>
  <rect x="364" y="124" width="16" height="16" fill="#9b5de5" stroke="#0c0f17" stroke-width="1"/>
  <rect x="380" y="124" width="16" height="16" fill="#9b5de5" stroke="#0c0f17" stroke-width="1"/>
  <rect x="412" y="28" width="16" height="16" fill="#ff4d4d" stroke="#0c0f17" stroke-width="1"/>
  <rect x="412" y="44" width="16" height="16" fill="#ff9f1c" stroke="#0c0f17" stroke-width="1"/>
  <rect x="412" y="60" width="16" height="16" fill="#ffd23f" stroke="#0c0f17" stroke-width="1"/>
  <rect x="412" y="76" width="16" height="16" fill="#2ec27e" stroke="#0c0f17" stroke-width="1"/>
  <rect x="412" y="92" width="16" height="16" fill="#22b8cf" stroke="#0c0f17" stroke-width="1"/>
  <rect x="412" y="108" width="16" height="16" fill="#4d79ff" stroke="#0c0f17" stroke-width="1"/>
  <rect x="412" y="124" width="16" height="16" fill="#9b5de5" stroke="#0c0f17" stroke-width="1"/>
  <rect x="428" y="124" width="16" height="16" fill="#9b5de5" stroke="#0c0f17" stroke-width="1"/>
  <rect x="444" y="124" width="16" height="16" fill="#9b5de5" stroke="#0c0f17" stroke-width="1"/>
  <rect x="460" y="124" width="16" height="16" fill="#9b5de5" stroke="#0c0f17" stroke-width="1"/>
  <rect x="476" y="124" width="16" height="16" fill="#9b5de5" stroke="#0c0f17" stroke-width="1"/>
  <rect x="508" y="28" width="16" height="16" fill="#ff4d4d" stroke="#0c0f17" stroke-width="1"/>
  <rect x="572" y="28" width="16" height="16" fill="#ff4d4d" stroke="#0c0f17" stroke-width="1"/>
  <rect x="508" y="44" width="16" height="16" fill="#ff9f1c" stroke="#0c0f17" stroke-width="1"/>
  <rect x="524" y="44" width="16" height="16" fill="#ff9f1c" stroke="#0c0f17" stroke-width="1"/>
  <rect x="556" y="44" width="16" height="16" fill="#ff9f1c" stroke="#0c0f17" stroke-width="1"/>
  <rect x="572" y="44" width="16" height="16" fill="#ff9f1c" stroke="#0c0f17" stroke-width="1"/>
  <rect x="508" y="60" width="16" height="16" fill="#ffd23f" stroke="#0c0f17" stroke-width="1"/>
  <rect x="540" y="60" width="16" height="16" fill="#ffd23f" stroke="#0c0f17" stroke-width="1"/>
  <rect x="572" y="60" width="16" height="16" fill="#ffd23f" stroke="#0c0f17" stroke-width="1"/>
  <rect x="508" y="76" width="16" height="16" fill="#2ec27e" stroke="#0c0f17" stroke-width="1"/>
  <rect x="540" y="76" width="16" height="16" fill="#2ec27e" stroke="#0c0f17" stroke-width="1"/>
  <rect x="572" y="76" width="16" height="16" fill="#2ec27e" stroke="#0c0f17" stroke-width="1"/>
  <rect x="508" y="92" width="16" height="16" fill="#22b8cf" stroke="#0c0f17" stroke-width="1"/>
  <rect x="572" y="92" width="16" height="16" fill="#22b8cf" stroke="#0c0f17" stroke-width="1"/>
  <rect x="508" y="108" width="16" height="16" fill="#4d79ff" stroke="#0c0f17" stroke-width="1"/>
  <rect x="572" y="108" width="16" height="16" fill="#4d79ff" stroke="#0c0f17" stroke-width="1"/>
  <rect x="508" y="124" width="16" height="16" fill="#9b5de5" stroke="#0c0f17" stroke-width="1"/>
  <rect x="572" y="124" width="16" height="16" fill="#9b5de5" stroke="#0c0f17" stroke-width="1"/>
  <rect x="620" y="28" width="16" height="16" fill="#ff4d4d" stroke="#0c0f17" stroke-width="1"/>
  <rect x="636" y="28" width="16" height="16" fill="#ff4d4d" stroke="#0c0f17" stroke-width="1"/>
  <rect x="652" y="28" width="16" height="16" fill="#ff4d4d" stroke="#0c0f17" stroke-width="1"/>
  <rect x="604" y="44" width="16" height="16" fill="#ff9f1c" stroke="#0c0f17" stroke-width="1"/>
  <rect x="668" y="44" width="16" height="16" fill="#ff9f1c" stroke="#0c0f17" stroke-width="1"/>
  <rect x="604" y="60" width="16" height="16" fill="#ffd23f" stroke="#0c0f17" stroke-width="1"/>
  <rect x="668" y="60" width="16" height="16" fill="#ffd23f" stroke="#0c0f17" stroke-width="1"/>
  <rect x="604" y="76" width="16" height="16" fill="#2ec27e" stroke="#0c0f17" stroke-width="1"/>
  <rect x="620" y="76" width="16" height="16" fill="#2ec27e" stroke="#0c0f17" stroke-width="1"/>
  <rect x="636" y="76" width="16" height="16" fill="#2ec27e" stroke="#0c0f17" stroke-width="1"/>
  <rect x="652" y="76" width="16" height="16" fill="#2ec27e" stroke="#0c0f17" stroke-width="1"/>
  <rect x="668" y="76" width="16" height="16" fill="#2ec27e" stroke="#0c0f17" stroke-width="1"/>
  <rect x="604" y="92" width="16" height="16" fill="#22b8cf" stroke="#0c0f17" stroke-width="1"/>
  <rect x="668" y="92" width="16" height="16" fill="#22b8cf" stroke="#0c0f17" stroke-width="1"/>
  <rect x="604" y="108" width="16" height="16" fill="#4d79ff" stroke="#0c0f17" stroke-width="1"/>
  <rect x="668" y="108" width="16" height="16" fill="#4d79ff" stroke="#0c0f17" stroke-width="1"/>
  <rect x="604" y="124" width="16" height="16" fill="#9b5de5" stroke="#0c0f17" stroke-width="1"/>
  <rect x="668" y="124" width="16" height="16" fill="#9b5de5" stroke="#0c0f17" stroke-width="1"/>
  <rect x="700" y="28" width="16" height="16" fill="#ff4d4d" stroke="#0c0f17" stroke-width="1"/>
  <rect x="764" y="28" width="16" height="16" fill="#ff4d4d" stroke="#0c0f17" stroke-width="1"/>
  <rect x="700" y="44" width="16" height="16" fill="#ff9f1c" stroke="#0c0f17" stroke-width="1"/>
  <rect x="764" y="44" width="16" height="16" fill="#ff9f1c" stroke="#0c0f17" stroke-width="1"/>
  <rect x="716" y="60" width="16" height="16" fill="#ffd23f" stroke="#0c0f17" stroke-width="1"/>
  <rect x="748" y="60" width="16" height="16" fill="#ffd23f" stroke="#0c0f17" stroke-width="1"/>
  <rect x="732" y="76" width="16" height="16" fill="#2ec27e" stroke="#0c0f17" stroke-width="1"/>
  <rect x="716" y="92" width="16" height="16" fill="#22b8cf" stroke="#0c0f17" stroke-width="1"/>
  <rect x="748" y="92" width="16" height="16" fill="#22b8cf" stroke="#0c0f17" stroke-width="1"/>
  <rect x="700" y="108" width="16" height="16" fill="#4d79ff" stroke="#0c0f17" stroke-width="1"/>
  <rect x="764" y="108" width="16" height="16" fill="#4d79ff" stroke="#0c0f17" stroke-width="1"/>
  <rect x="700" y="124" width="16" height="16" fill="#9b5de5" stroke="#0c0f17" stroke-width="1"/>
  <rect x="764" y="124" width="16" height="16" fill="#9b5de5" stroke="#0c0f17" stroke-width="1"/>
  <rect x="796" y="28" width="16" height="16" fill="#ff4d4d" stroke="#0c0f17" stroke-width="1"/>
  <rect x="860" y="28" width="16" height="16" fill="#ff4d4d" stroke="#0c0f17" stroke-width="1"/>
  <rect x="796" y="44" width="16" height="16" fill="#ff9f1c" stroke="#0c0f17" stroke-width="1"/>
  <rect x="860" y="44" width="16" height="16" fill="#ff9f1c" stroke="#0c0f17" stroke-width="1"/>
  <rect x="812" y="60" width="16" height="16" fill="#ffd23f" stroke="#0c0f17" stroke-width="1"/>
  <rect x="844" y="60" width="16" height="16" fill="#ffd23f" stroke="#0c0f17" stroke-width="1"/>
  <rect x="828" y="76" width="16" height="16" fill="#2ec27e" stroke="#0c0f17" stroke-width="1"/>
  <rect x="812" y="92" width="16" height="16" fill="#22b8cf" stroke="#0c0f17" stroke-width="1"/>
  <rect x="844" y="92" width="16" height="16" fill="#22b8cf" stroke="#0c0f17" stroke-width="1"/>
  <rect x="796" y="108" width="16" height="16" fill="#4d79ff" stroke="#0c0f17" stroke-width="1"/>
  <rect x="860" y="108" width="16" height="16" fill="#4d79ff" stroke="#0c0f17" stroke-width="1"/>
  <rect x="796" y="124" width="16" height="16" fill="#9b5de5" stroke="#0c0f17" stroke-width="1"/>
  <rect x="860" y="124" width="16" height="16" fill="#9b5de5" stroke="#0c0f17" stroke-width="1"/>
  <rect x="892" y="28" width="16" height="16" fill="#ff4d4d" stroke="#0c0f17" stroke-width="1"/>
  <rect x="908" y="28" width="16" height="16" fill="#ff4d4d" stroke="#0c0f17" stroke-width="1"/>
  <rect x="924" y="28" width="16" height="16" fill="#ff4d4d" stroke="#0c0f17" stroke-width="1"/>
  <rect x="940" y="28" width="16" height="16" fill="#ff4d4d" stroke="#0c0f17" stroke-width="1"/>
  <rect x="956" y="28" width="16" height="16" fill="#ff4d4d" stroke="#0c0f17" stroke-width="1"/>
  <rect x="924" y="44" width="16" height="16" fill="#ff9f1c" stroke="#0c0f17" stroke-width="1"/>
  <rect x="924" y="60" width="16" height="16" fill="#ffd23f" stroke="#0c0f17" stroke-width="1"/>
  <rect x="924" y="76" width="16" height="16" fill="#2ec27e" stroke="#0c0f17" stroke-width="1"/>
  <rect x="924" y="92" width="16" height="16" fill="#22b8cf" stroke="#0c0f17" stroke-width="1"/>
  <rect x="924" y="108" width="16" height="16" fill="#4d79ff" stroke="#0c0f17" stroke-width="1"/>
  <rect x="892" y="124" width="16" height="16" fill="#9b5de5" stroke="#0c0f17" stroke-width="1"/>
  <rect x="908" y="124" width="16" height="16" fill="#9b5de5" stroke="#0c0f17" stroke-width="1"/>
  <rect x="924" y="124" width="16" height="16" fill="#9b5de5" stroke="#0c0f17" stroke-width="1"/>
  <rect x="940" y="124" width="16" height="16" fill="#9b5de5" stroke="#0c0f17" stroke-width="1"/>
  <rect x="956" y="124" width="16" height="16" fill="#9b5de5" stroke="#0c0f17" stroke-width="1"/>
  <rect x="988" y="28" width="16" height="16" fill="#ff4d4d" stroke="#0c0f17" stroke-width="1"/>
  <rect x="1052" y="28" width="16" height="16" fill="#ff4d4d" stroke="#0c0f17" stroke-width="1"/>
  <rect x="988" y="44" width="16" height="16" fill="#ff9f1c" stroke="#0c0f17" stroke-width="1"/>
  <rect x="1004" y="44" width="16" height="16" fill="#ff9f1c" stroke="#0c0f17" stroke-width="1"/>
  <rect x="1052" y="44" width="16" height="16" fill="#ff9f1c" stroke="#0c0f17" stroke-width="1"/>
  <rect x="988" y="60" width="16" height="16" fill="#ffd23f" stroke="#0c0f17" stroke-width="1"/>
  <rect x="1020" y="60" width="16" height="16" fill="#ffd23f" stroke="#0c0f17" stroke-width="1"/>
  <rect x="1052" y="60" width="16" height="16" fill="#ffd23f" stroke="#0c0f17" stroke-width="1"/>
  <rect x="988" y="76" width="16" height="16" fill="#2ec27e" stroke="#0c0f17" stroke-width="1"/>
  <rect x="1020" y="76" width="16" height="16" fill="#2ec27e" stroke="#0c0f17" stroke-width="1"/>
  <rect x="1052" y="76" width="16" height="16" fill="#2ec27e" stroke="#0c0f17" stroke-width="1"/>
  <rect x="988" y="92" width="16" height="16" fill="#22b8cf" stroke="#0c0f17" stroke-width="1"/>
  <rect x="1036" y="92" width="16" height="16" fill="#22b8cf" stroke="#0c0f17" stroke-width="1"/>
  <rect x="1052" y="92" width="16" height="16" fill="#22b8cf" stroke="#0c0f17" stroke-width="1"/>
  <rect x="988" y="108" width="16" height="16" fill="#4d79ff" stroke="#0c0f17" stroke-width="1"/>
  <rect x="1052" y="108" width="16" height="16" fill="#4d79ff" stroke="#0c0f17" stroke-width="1"/>
  <rect x="988" y="124" width="16" height="16" fill="#9b5de5" stroke="#0c0f17" stroke-width="1"/>
  <rect x="1052" y="124" width="16" height="16" fill="#9b5de5" stroke="#0c0f17" stroke-width="1"/>
  <rect x="1100" y="28" width="16" height="16" fill="#ff4d4d" stroke="#0c0f17" stroke-width="1"/>
  <rect x="1116" y="28" width="16" height="16" fill="#ff4d4d" stroke="#0c0f17" stroke-width="1"/>
  <rect x="1132" y="28" width="16" height="16" fill="#ff4d4d" stroke="#0c0f17" stroke-width="1"/>
  <rect x="1148" y="28" width="16" height="16" fill="#ff4d4d" stroke="#0c0f17" stroke-width="1"/>
  <rect x="1084" y="44" width="16" height="16" fill="#ff9f1c" stroke="#0c0f17" stroke-width="1"/>
  <rect x="1084" y="60" width="16" height="16" fill="#ffd23f" stroke="#0c0f17" stroke-width="1"/>
  <rect x="1084" y="76" width="16" height="16" fill="#2ec27e" stroke="#0c0f17" stroke-width="1"/>
  <rect x="1116" y="76" width="16" height="16" fill="#2ec27e" stroke="#0c0f17" stroke-width="1"/>
  <rect x="1132" y="76" width="16" height="16" fill="#2ec27e" stroke="#0c0f17" stroke-width="1"/>
  <rect x="1148" y="76" width="16" height="16" fill="#2ec27e" stroke="#0c0f17" stroke-width="1"/>
  <rect x="1084" y="92" width="16" height="16" fill="#22b8cf" stroke="#0c0f17" stroke-width="1"/>
  <rect x="1148" y="92" width="16" height="16" fill="#22b8cf" stroke="#0c0f17" stroke-width="1"/>
  <rect x="1084" y="108" width="16" height="16" fill="#4d79ff" stroke="#0c0f17" stroke-width="1"/>
  <rect x="1148" y="108" width="16" height="16" fill="#4d79ff" stroke="#0c0f17" stroke-width="1"/>
  <rect x="1100" y="124" width="16" height="16" fill="#9b5de5" stroke="#0c0f17" stroke-width="1"/>
  <rect x="1116" y="124" width="16" height="16" fill="#9b5de5" stroke="#0c0f17" stroke-width="1"/>
  <rect x="1132" y="124" width="16" height="16" fill="#9b5de5" stroke="#0c0f17" stroke-width="1"/>
  <rect x="1148" y="124" width="16" height="16" fill="#9b5de5" stroke="#0c0f17" stroke-width="1"/>
  <text x="596" y="174" font-family="ui-monospace, SFMono-Regular, Menlo, monospace" font-size="20" letter-spacing="2" fill="#8b93a7" text-anchor="middle">self-evolving skills for your coding agent</text>
</svg>
